inDegrees=yes
name=ik_MT_2026-09-03_14h52_01210270-000-000_orientations
DataType=double
version=3
OpenSimVersion=4.5
endheader
time	pelvis_tilt	pelvis_list	pelvis_rotation	pelvis_tx	pelvis_ty	pelvis_tz	hip_flexion_r	hip_adduction_r	hip_rotation_r	knee_angle_r	knee_angle_r_beta	ankle_angle_r	subtalar_angle_r	mtp_angle_r	hip_flexion_l	hip_adduction_l	hip_rotation_l	knee_angle_l	knee_angle_l_beta	ankle_angle_l	subtalar_angle_l	mtp_angle_l	lumbar_extension	lumbar_bending	lumbar_rotation	arm_flex_r	arm_add_r	arm_rot_r	elbow_flex_r	pro_sup_r	wrist_flex_r	wrist_dev_r	arm_flex_l	arm_add_l	arm_rot_l	elbow_flex_l	pro_sup_l	wrist_flex_l	wrist_dev_l
101.825	13.14043817405228	13.0915070754319	-223.3865054328797	0	0.9399999999999999	0	-16.97100993239543	1.08401915944178	-1584.432680473312	61.49588294637503	1.073305633835276	23.05343460785148	0	0	-2.746233619853581	-14.38072529893122	1605.471213915072	0.4616198082439893	0.008056785546282476	-4.977366063014568	0	0	89.97676175841258	89.99739047756603	89.97676239498072	89.99459341537376	89.86547897342236	89.99459916077245	11.22685757780158	45.00000025534055	0	0	89.99465871694592	-96.30559278675746	-89.99432678846979	0.06950809642878157	45.00000025534055	0	0
101.85	13.60003784374621	12.83457976003828	-223.7874979424108	0	0.9399999999999999	0	-18.79453150614238	0.1934481732899316	-1583.531525013511	57.46770909870168	1.003000737350647	24.66226946963071	0	0	-0.9141060422492112	-14.87486389793276	1605.875824723633	-0.1588298962759891	-0.00277210464061709	-4.259695027808594	0	0	89.97722808006837	89.99740179288067	89.97722869585357	89.99465469520071	89.88535917000414	89.99465933492874	11.67687771095539	45.00000025534055	0	0	89.99472555329183	-96.80510981288252	-89.99437823212126	0.0692155915533077	45.00000025534055	0	0
101.875	13.93459294231159	12.57387544852402	-224.1378557329015	0	0.9399999999999999	0	-20.2087941397572	-0.5233524149177496	-1582.513733723143	51.51978615696738	0.899189898362477	24.31872255096031	0	0	0.9661046359294265	-15.30373653950668	1606.189257150954	-0.9453846188640705	-0.01650007429688972	-3.691023746395599	0	0	89.97758696612689	89.99741399494658	89.97758765474171	89.99470950252939	89.89980857056888	89.99471340925658	12.02237215469005	45.00000025534055	0	0	89.99478521873853	-97.20029916542373	-89.99442588256994	0.0688458399352769	45.00000025534055	0	0
101.9	14.14366465507051	12.32363668784279	-224.415632405262	0	0.9399999999999999	0	-19.94009219217942	-0.2745023972980182	-1581.759148028183	41.22627896573665	0.7195343062977871	21.10249624183862	0	0	2.683994811738376	-15.65887372391694	1606.815326052099	-1.659432076028472	-0.0289625534399017	-2.995309682288558	0	0	89.97786436997391	89.99742501872781	89.97786476715078	89.99475262429208	89.9082875684054	89.9947561287495	12.29789649985842	45.00000025534055	0	0	89.99483133754072	-97.45754630798048	-89.99446739216667	0.06889710586419054	45.00000025534055	0	0
101.925	14.21009494236348	12.15528468097351	-224.6118106078155	0	0.9399999999999999	0	-4.954558355639885	5.028905942421726	-1580.719208915873	5.635414876289383	0.09835654430711867	9.643010899442768	0	0	4.30241651629026	-15.98444400106641	1607.857161665176	-2.542113069317665	-0.0443682430175721	-2.390123717190277	0	0	89.97796897051781	89.99743426928711	89.97796976175495	89.99478614981547	89.91021334065373	89.99478943613209	12.34817700667734	45.00000025534055	0	0	89.99486490680992	-97.58801834279146	-89.99450244772105	0.0690409847468887	45.00000025534055	0	0
101.95	14.22445072912952	12.09426285453406	-224.7859415498754	0	0.9399999999999999	0	-3.59384787690578	6.617456516099057	-1581.908638133827	-4.085056852185608	-0.07129769220179417	9.461921162905728	0	0	5.955932134198032	-16.37903366988088	1608.81195646478	-3.56323374148315	-0.06219016080703743	-1.815152704776173	0	0	89.97810841807893	89.99743945399126	89.97810933136149	89.99481177644287	89.91177311708388	89.99481511670143	12.34838369682632	45.00000025534055	0	0	89.99489103873134	-97.5950141817903	-89.99453141152959	0.06888446996759302	45.00000025534055	0	0
101.975	14.25860839792801	12.07497841412429	-224.9254145457482	0	0.9399999999999999	0	-3.48931484112714	7.342275428263188	-1584.795638132824	-9.891081486006417	-0.1726319385138654	10.5107337826696	0	0	7.670407262400471	-16.77745036173718	1609.326686909207	-4.448093628830205	-0.07763387926006964	-1.152302444655998	0	0	89.97842313240776	89.99744053650971	89.97842356814793	89.99483147222763	89.91217382725461	89.99483475371152	12.3842898524376	45.00000025534055	0	0	89.99491019086292	-97.62785721358549	-89.99455251084841	0.06898673333177742	45.00000025534055	0	0
102	14.27878315962656	12.10728299376829	-225.0268182059135	0	0.9399999999999999	0	-2.612829609324849	7.858281407960423	-1587.908264615525	-15.63702600413464	-0.2729175889921219	11.32270514577185	0	0	9.212989602308815	-17.06483605716602	1609.360398014688	-4.983055139604263	-0.08697071899452008	-0.423356513458197	0	0	89.97862708803596	89.99744052773936	89.97862749968264	89.99484586937871	89.9115783320276	89.99484914436783	12.39082021886577	45.00000025534055	0	0	89.99492395128641	-97.61547473418655	-89.99456810419821	0.06881117279407017	45.00000025534055	0	0
102.025	14.44313572133154	12.11106184820124	-225.068136404963	0	0.9399999999999999	0	-1.839802838851462	8.878439006363967	-1590.10107730359	-20.01509544164067	-0.3493293155575383	10.75805416880517	0	0	10.55600006989431	-17.26060828951002	1609.373157131685	-4.939617971945524	-0.08621259740113429	0.5263521152031653	0	0	89.97868591425132	89.99744106783112	89.97868650411124	89.99485027146306	89.91440651760841	89.99485351134791	12.54997547284433	45.00000025534055	0	0	89.99493033654674	-97.75319757040981	-89.99456665143222	0.06845486974972682	45.00000025534055	0	0
102.05	14.69154411282457	12.1491867139318	-225.1148717958365	0	0.9399999999999999	0	-1.818956497756506	11.03794174667342	-1591.180991008508	-21.86019153074539	-0.3815323173280862	6.418571024862338	0	0	11.76223126001471	-17.47144966568997	1609.892350097143	-4.480976499686816	-0.07820779362402559	1.750532404686411	0	0	89.97862621175666	89.99744201420972	89.97862755430117	89.9948534836382	89.91774236406408	89.99485667432495	12.78319421887984	45.00000025534055	0	0	89.99493666186702	-97.96329001295437	-89.99456044323547	0.06780704644533027	45.00000025534055	0	0
102.075	14.94593841320162	12.24556219217617	-225.1894141477716	0	0.9399999999999999	0	-0.3735703787380112	12.25106097618359	-1592.43447070359	-22.22119648247704	-0.3878330423518067	1.588628777453854	0	0	12.84767369278392	-17.7572946623157	1610.717277175719	-3.582670370210916	-0.06252939397382466	3.200655195686807	0	0	89.97864393285965	89.99744307175938	89.97864440513291	89.99486055734803	89.92026108880169	89.99486350980939	13.01616266466874	45.00000025534055	0	0	89.99494628257783	-98.14197317746229	-89.99455757296941	0.06707122253589838	45.00000025534055	0	0
102.1	15.21149048922816	12.19323465783505	-225.2097813977503	0	0.9399999999999999	0	0.2666919262722706	12.81546135200515	-1592.422229122589	-20.44917036989765	-0.3569053522559807	-2.162848394602757	0	0	13.69128472701504	-17.89831064065365	1611.481221847313	-2.010123330627498	-0.03508327049060441	4.861181336597469	0	0	89.97879172855873	89.9974454178524	89.97879268142492	89.99486062074776	89.92553688073339	89.99486347482876	13.29582083842316	45.00000025534055	0	0	89.99495140195084	-98.42960506462622	-89.99454514463825	0.06634542720803213	45.00000025534055	0	0
102.125	15.79835866184852	12.00548991881325	-225.194097986402	0	0.9399999999999999	0	1.362502617218342	12.88450154939305	-1591.361319770077	-20.86889836153896	-0.3642309876729047	-5.934055002238119	0	0	14.62105684042874	-17.9562316259397	1612.002335885193	0.1416772256115921	0.002472734062013119	6.582225473717595	0	0	89.97906596903934	89.99745239514561	89.97906704693058	89.99485297353591	89.93372636140701	89.99485551051004	13.95268984017319	45.00000025534055	0	0	89.99495232539161	-99.0595504254631	-89.99451355692882	0.06654564143135983	45.00000025534055	0	0
102.15	16.72155374842801	11.67693516821071	-225.2254001501995	0	0.9399999999999999	0	2.626552958137438	14.40459088537203	-1590.097223901711	-20.81735215203734	-0.3633313366001787	-8.261707130665613	0	0	15.03222102884067	-17.6328423861544	1611.695382120638	3.887502483364958	0.06784971801417461	8.611361556274156	0	0	89.97971090918431	89.99746138580767	89.9797116428232	89.99485139360134	89.94540333489161	89.99485339614363	14.94605478180545	45.00000025534055	0	0	89.99496843487168	-100.1089193386522	-89.99446969729733	0.06478966626034541	45.00000025534055	0	0
102.175	17.87268422643356	11.0958525057504	-225.2440411365127	0	0.9399999999999999	0	5.863468714897483	15.6601094134598	-1588.129679676208	-21.74409102906957	-0.379505981310626	-7.233741692677439	0	0	14.75836241402187	-16.62768882942091	1610.868427702137	9.22934210908319	0.1610824075964593	10.24719006092491	0	0	89.98068380515871	89.99747022764102	89.98068449841125	89.99484922138113	89.95523699246682	89.99485086677896	16.24459388302918	45.00000025534055	0	0	89.99498659926482	-101.455703874475	-89.99442029923323	0.06399288025319125	45.00000025534055	0	0
102.2	19.44394533053965	10.22921160497669	-225.2927371979635	0	0.9399999999999999	0	8.264467123341664	16.3691435380084	-1586.797936705482	-21.17195522969142	-0.3695203278429476	-5.712878616156151	0	0	13.86606705960573	-14.49059019511731	1609.340352026788	16.72872747887099	0.2919713741751489	11.17286630736159	0	0	89.98207361881282	89.99748569992374	89.9820744033165	89.99485269666215	89.96428823927015	89.99485396853692	18.03856317120294	45.00000025534055	0	0	89.9950177566289	-103.3431335468678	-89.99435752465364	0.06283116827504295	45.00000025534055	0	0
102.225	20.97999949347326	9.305717139586275	-225.5590527114549	0	0.9399999999999999	0	9.737335612543157	16.79520974553279	-1584.106242974956	-20.16039917457283	-0.3518653441126429	-4.663174372201275	0	0	12.56421033151407	-10.83645397265329	1607.29922029977	25.44688697897661	0.4441319621660149	10.24908421222907	0	0	89.98374071033753	89.99749085458915	89.983741032754	89.99488762436721	89.9702850131918	89.99488841961652	19.83360551160005	45.00000025534055	0	0	89.99507641469938	-105.2198598716336	-89.99433350311438	0.06172925114859482	45.00000025534055	0	0
